# xmcd CD database file
#
# Track frame offsets:
#	150
#	18057
#	40692
#	64057
#	83947
#	111745
#	138897
#	165495
#
# Disc length: 2453 seconds
#
# Revision: 1
# Processed by: cddbd v1.5.1PL0 Copyright (c) Steve Scherf et al.
# Submitted via: CDex 1.51
#
DISCID=5f099308
DTITLE=Quincy Jones - Quincy Jones And His Orchestra At Newport '61
DYEAR=1961
DGENRE=Jazz
TTITLE0=Meet B.B.
TTITLE1=The Boy In The Tree
TTITLE2=Evening In Paris
TTITLE3=Airmail Special
TTITLE4=Lester Leaps In
TTITLE5=G'won Train
TTITLE6=Banja Luka
TTITLE7=Gana
EXTD=YEAR: 1961
EXTT0=
EXTT1=
EXTT2=
EXTT3=
EXTT4=
EXTT5=
EXTT6=
EXTT7=
PLAYORDER=
